%TF.GenerationSoftware,KiCad,Pcbnew,(5.1.12)-1*%
%TF.CreationDate,2023-04-28T14:06:47+01:00*%
%TF.ProjectId,asininos02,6173696e-696e-46f7-9330-322e6b696361,rev?*%
%TF.SameCoordinates,Original*%
%TF.FileFunction,Soldermask,Bot*%
%TF.FilePolarity,Negative*%
%FSLAX46Y46*%
G04 Gerber Fmt 4.6, Leading zero omitted, Abs format (unit mm)*
G04 Created by KiCad (PCBNEW (5.1.12)-1) date 2023-04-28 14:06:47*
%MOMM*%
%LPD*%
G01*
G04 APERTURE LIST*
%ADD10R,2.540000X3.510000*%
%ADD11R,1.700000X1.700000*%
%ADD12O,1.700000X1.700000*%
%ADD13O,2.000000X1.700000*%
%ADD14R,1.500000X1.500000*%
%ADD15R,1.000000X2.000000*%
%ADD16C,1.500000*%
%ADD17R,1.050000X2.200000*%
%ADD18R,1.000000X1.050000*%
%ADD19C,3.500000*%
%ADD20R,3.500000X3.500000*%
%ADD21C,3.200000*%
G04 APERTURE END LIST*
D10*
%TO.C,BT2*%
X236650000Y-114220000D03*
X207290000Y-114220000D03*
%TD*%
%TO.C,C24*%
G36*
G01*
X235353173Y-119105076D02*
X236024924Y-119776827D01*
G75*
G02*
X236024924Y-120130381I-176777J-176777D01*
G01*
X235547627Y-120607678D01*
G75*
G02*
X235194073Y-120607678I-176777J176777D01*
G01*
X234522322Y-119935927D01*
G75*
G02*
X234522322Y-119582373I176777J176777D01*
G01*
X234999619Y-119105076D01*
G75*
G02*
X235353173Y-119105076I176777J-176777D01*
G01*
G37*
G36*
G01*
X233885927Y-120572322D02*
X234557678Y-121244073D01*
G75*
G02*
X234557678Y-121597627I-176777J-176777D01*
G01*
X234080381Y-122074924D01*
G75*
G02*
X233726827Y-122074924I-176777J176777D01*
G01*
X233055076Y-121403173D01*
G75*
G02*
X233055076Y-121049619I176777J176777D01*
G01*
X233532373Y-120572322D01*
G75*
G02*
X233885927Y-120572322I176777J-176777D01*
G01*
G37*
%TD*%
%TO.C,C26*%
G36*
G01*
X256440000Y-129345000D02*
X256440000Y-130295000D01*
G75*
G02*
X256190000Y-130545000I-250000J0D01*
G01*
X255515000Y-130545000D01*
G75*
G02*
X255265000Y-130295000I0J250000D01*
G01*
X255265000Y-129345000D01*
G75*
G02*
X255515000Y-129095000I250000J0D01*
G01*
X256190000Y-129095000D01*
G75*
G02*
X256440000Y-129345000I0J-250000D01*
G01*
G37*
G36*
G01*
X258515000Y-129345000D02*
X258515000Y-130295000D01*
G75*
G02*
X258265000Y-130545000I-250000J0D01*
G01*
X257590000Y-130545000D01*
G75*
G02*
X257340000Y-130295000I0J250000D01*
G01*
X257340000Y-129345000D01*
G75*
G02*
X257590000Y-129095000I250000J0D01*
G01*
X258265000Y-129095000D01*
G75*
G02*
X258515000Y-129345000I0J-250000D01*
G01*
G37*
%TD*%
D11*
%TO.C,J1*%
X251040000Y-132220000D03*
D12*
X248500000Y-132220000D03*
X245960000Y-132220000D03*
X243420000Y-132220000D03*
X240880000Y-132220000D03*
X238340000Y-132220000D03*
%TD*%
D11*
%TO.C,J3*%
X250150000Y-102560000D03*
D12*
X247610000Y-102560000D03*
X245070000Y-102560000D03*
X242530000Y-102560000D03*
%TD*%
%TO.C,J4*%
X225450000Y-132660000D03*
X225450000Y-130120000D03*
D11*
X225450000Y-127580000D03*
%TD*%
%TO.C,J5*%
X228370000Y-127560000D03*
D12*
X228370000Y-130100000D03*
X228370000Y-132640000D03*
%TD*%
%TO.C,J6*%
G36*
G01*
X267120000Y-106540000D02*
X265620000Y-106540000D01*
G75*
G02*
X265370000Y-106290000I0J250000D01*
G01*
X265370000Y-105090000D01*
G75*
G02*
X265620000Y-104840000I250000J0D01*
G01*
X267120000Y-104840000D01*
G75*
G02*
X267370000Y-105090000I0J-250000D01*
G01*
X267370000Y-106290000D01*
G75*
G02*
X267120000Y-106540000I-250000J0D01*
G01*
G37*
D13*
X266370000Y-103190000D03*
%TD*%
D11*
%TO.C,J7*%
X258570000Y-102490000D03*
D12*
X258570000Y-105030000D03*
X258570000Y-107570000D03*
%TD*%
%TO.C,R15*%
G36*
G01*
X257320000Y-132500001D02*
X257320000Y-131599999D01*
G75*
G02*
X257569999Y-131350000I249999J0D01*
G01*
X258270001Y-131350000D01*
G75*
G02*
X258520000Y-131599999I0J-249999D01*
G01*
X258520000Y-132500001D01*
G75*
G02*
X258270001Y-132750000I-249999J0D01*
G01*
X257569999Y-132750000D01*
G75*
G02*
X257320000Y-132500001I0J249999D01*
G01*
G37*
G36*
G01*
X255320000Y-132500001D02*
X255320000Y-131599999D01*
G75*
G02*
X255569999Y-131350000I249999J0D01*
G01*
X256270001Y-131350000D01*
G75*
G02*
X256520000Y-131599999I0J-249999D01*
G01*
X256520000Y-132500001D01*
G75*
G02*
X256270001Y-132750000I-249999J0D01*
G01*
X255569999Y-132750000D01*
G75*
G02*
X255320000Y-132500001I0J249999D01*
G01*
G37*
%TD*%
D14*
%TO.C,SW1*%
X269490000Y-132060000D03*
X261690000Y-132060000D03*
%TD*%
D15*
%TO.C,U1*%
X239900000Y-105630000D03*
X241900000Y-105630000D03*
X243900000Y-105630000D03*
X245900000Y-105630000D03*
X247900000Y-105630000D03*
X249900000Y-105630000D03*
X251900000Y-105630000D03*
X253900000Y-105630000D03*
X253900000Y-121630000D03*
X251900000Y-121630000D03*
X249900000Y-121630000D03*
X247900000Y-121630000D03*
X245900000Y-121630000D03*
X243900000Y-121630000D03*
X241900000Y-121630000D03*
X239900000Y-121630000D03*
%TD*%
D16*
%TO.C,Y1*%
X236480000Y-102690000D03*
X231600000Y-102690000D03*
%TD*%
D17*
%TO.C,AE1*%
X252425000Y-125565000D03*
D18*
X253900000Y-124040000D03*
D17*
X255375000Y-125565000D03*
%TD*%
D19*
%TO.C,BT1*%
X195390000Y-119160000D03*
D20*
X267390000Y-119160000D03*
D21*
X258745000Y-119160000D03*
X203135000Y-119160000D03*
%TD*%
M02*
