%TF.GenerationSoftware,KiCad,Pcbnew,(5.1.12)-1*%
%TF.CreationDate,2023-04-28T14:06:48+01:00*%
%TF.ProjectId,asininos02,6173696e-696e-46f7-9330-322e6b696361,rev?*%
%TF.SameCoordinates,Original*%
%TF.FileFunction,Other,User*%
%FSLAX46Y46*%
G04 Gerber Fmt 4.6, Leading zero omitted, Abs format (unit mm)*
G04 Created by KiCad (PCBNEW (5.1.12)-1) date 2023-04-28 14:06:48*
%MOMM*%
%LPD*%
G01*
G04 APERTURE LIST*
%ADD10C,0.050000*%
G04 APERTURE END LIST*
D10*
%TO.C,BT2*%
X210910000Y-118330000D02*
X205520000Y-118330000D01*
X205520000Y-118330000D02*
X205520000Y-110110000D01*
X205520000Y-110110000D02*
X210910000Y-110110000D01*
X238420000Y-110110000D02*
X233030000Y-110110000D01*
X238420000Y-110110000D02*
X238420000Y-118330000D01*
X238420000Y-118330000D02*
X233030000Y-118330000D01*
X233027924Y-118335582D02*
G75*
G02*
X210910000Y-118330000I-11057924J4115582D01*
G01*
X210912076Y-110104418D02*
G75*
G02*
X233030000Y-110110000I11057924J-4115582D01*
G01*
%TO.C,C24*%
X236562325Y-119953604D02*
X235176396Y-118567675D01*
X235176396Y-118567675D02*
X232517675Y-121226396D01*
X232517675Y-121226396D02*
X233903604Y-122612325D01*
X233903604Y-122612325D02*
X236562325Y-119953604D01*
%TO.C,C26*%
X255010000Y-130800000D02*
X258770000Y-130800000D01*
X255010000Y-128840000D02*
X255010000Y-130800000D01*
X258770000Y-128840000D02*
X255010000Y-128840000D01*
X258770000Y-130800000D02*
X258770000Y-128840000D01*
%TO.C,R15*%
X258770000Y-131100000D02*
X255070000Y-131100000D01*
X258770000Y-133000000D02*
X258770000Y-131100000D01*
X255070000Y-133000000D02*
X258770000Y-133000000D01*
X255070000Y-131100000D02*
X255070000Y-133000000D01*
%TO.C,SW1*%
X270490000Y-134110000D02*
X270490000Y-130010000D01*
X260690000Y-134110000D02*
X270490000Y-134110000D01*
X260690000Y-130010000D02*
X260690000Y-134110000D01*
X270490000Y-130010000D02*
X260690000Y-130010000D01*
%TO.C,U1*%
X238650000Y-104380000D02*
X238650000Y-122880000D01*
X238650000Y-122880000D02*
X255150000Y-122880000D01*
X255150000Y-104380000D02*
X255150000Y-122880000D01*
X255150000Y-104380000D02*
X238650000Y-104380000D01*
%TO.C,AE1*%
X254900000Y-123070000D02*
X252900000Y-123070000D01*
X254900000Y-123770000D02*
X254900000Y-123070000D01*
X255700000Y-127170000D02*
X255700000Y-127370000D01*
X256400000Y-127170000D02*
X255700000Y-127170000D01*
X255700000Y-127370000D02*
X252100000Y-127370000D01*
X255700000Y-123770000D02*
X255700000Y-123970000D01*
X256400000Y-123970000D02*
X255700000Y-123970000D01*
X256400000Y-127170000D02*
X256400000Y-123970000D01*
X252100000Y-127170000D02*
X252100000Y-127370000D01*
X252100000Y-127170000D02*
X251400000Y-127170000D01*
X252900000Y-123770000D02*
X252100000Y-123770000D01*
X251400000Y-127170000D02*
X251400000Y-123970000D01*
X252100000Y-123970000D02*
X251400000Y-123970000D01*
X252100000Y-123770000D02*
X252100000Y-123970000D01*
X255700000Y-123770000D02*
X254900000Y-123770000D01*
X252900000Y-123770000D02*
X252900000Y-123070000D01*
%TO.C,BT1*%
X270590000Y-129410000D02*
X270590000Y-108910000D01*
X192190000Y-129410000D02*
X270590000Y-129410000D01*
X192190000Y-108910000D02*
X192190000Y-129410000D01*
X270590000Y-108910000D02*
X192190000Y-108910000D01*
%TD*%
M02*
