M48
; DRILL file {KiCad (5.1.12)-1} date 04/28/23 14:07:00
; FORMAT={-:-/ absolute / metric / decimal}
; #@! TF.CreationDate,2023-04-28T14:07:00+01:00
; #@! TF.GenerationSoftware,Kicad,Pcbnew,(5.1.12)-1
; #@! TF.FileFunction,Plated,1,2,PTH
FMAT,2
METRIC
T1C0.400
T2C0.800
T3C1.000
T4C2.000
%
G90
G05
T1
X199.76Y-124.51
X201.48Y-130.81
X205.8Y-120.83
X210.59Y-128.02
X211.36Y-121.98
X211.37Y-122.75
X211.38Y-123.54
X212.34Y-124.07
X212.35Y-121.52
X212.36Y-122.37
X212.36Y-123.2
X213.14Y-121.49
X213.17Y-122.39
X213.21Y-123.23
X213.22Y-124.05
X214.04Y-125.99
X214.3Y-124.99
X215.28Y-123.31
X215.87Y-105.7
X215.89Y-104.6
X216.05Y-121.46
X216.13Y-119.75
X216.82Y-112.73
X221.1Y-132.13
X221.36Y-128.4
X222.75Y-120.17
X222.75Y-121.32
X223.31Y-125.66
X226.41Y-111.79
X228.1Y-109.33
X228.37Y-124.12
X228.52Y-122.69
X228.536Y-112.046
X228.75Y-118.2
X228.751Y-108.865
X228.77Y-120.2
X228.78Y-119.18
X228.83Y-107.38
X229.14Y-111.39
X229.61Y-117.54
X229.66Y-119.86
X229.71Y-118.99
X230.21Y-121.42
X230.53Y-127.56
X231.23Y-133.69
X231.43Y-109.52
X231.742Y-111.638
X232.03Y-125.34
X232.63Y-118.43
X233.13Y-115.7
X233.14Y-117.71
X233.19Y-114.65
X233.67Y-119.46
X233.83Y-109.62
X234.12Y-110.96
X234.59Y-124.44
X234.76Y-113.89
X234.96Y-110.94
X235.628Y-123.318
X235.85Y-122.55
X237.05Y-119.51
X237.31Y-130.54
X238.13Y-122.21
X239.06Y-125.34
X239.41Y-112.51
X240.93Y-124.54
X240.99Y-116.06
X241.17Y-116.84
X241.9Y-118.58
X242.95Y-117.76
X244.43Y-110.74
X245.56Y-118.45
X245.96Y-129.63
X248.02Y-118.47
X248.02Y-128.26
X248.23Y-111.65
X248.5Y-130.23
X249.07Y-117.45
X249.26Y-115.95
X249.9Y-113.08
X249.92Y-128.27
X249.95Y-129.73
X250.05Y-116.88
X250.05Y-118.15
X251.57Y-128.24
X251.58Y-129.71
X252.18Y-113.52
X253.4Y-128.27
X253.4Y-129.71
X255.59Y-117.52
X258.05Y-112.65
X259.8Y-112.7
X262.59Y-118.21
X264.98Y-129.53
T2
X231.6Y-102.69
X236.48Y-102.69
T3
X225.45Y-127.58
X225.45Y-130.12
X225.45Y-132.66
X228.37Y-127.56
X228.37Y-130.1
X228.37Y-132.64
X238.34Y-132.22
X240.88Y-132.22
X242.53Y-102.56
X243.42Y-132.22
X245.07Y-102.56
X245.96Y-132.22
X247.61Y-102.56
X248.5Y-132.22
X250.15Y-102.56
X251.04Y-132.22
X258.57Y-102.49
X258.57Y-105.03
X258.57Y-107.57
X266.37Y-103.19
X266.37Y-105.69
T4
X195.39Y-119.16
X267.39Y-119.16
T0
M30
