%TF.GenerationSoftware,KiCad,Pcbnew,(5.1.12)-1*%
%TF.CreationDate,2023-04-28T14:06:47+01:00*%
%TF.ProjectId,asininos02,6173696e-696e-46f7-9330-322e6b696361,rev?*%
%TF.SameCoordinates,Original*%
%TF.FileFunction,Legend,Bot*%
%TF.FilePolarity,Positive*%
%FSLAX46Y46*%
G04 Gerber Fmt 4.6, Leading zero omitted, Abs format (unit mm)*
G04 Created by KiCad (PCBNEW (5.1.12)-1) date 2023-04-28 14:06:47*
%MOMM*%
%LPD*%
G01*
G04 APERTURE LIST*
%ADD10C,0.200000*%
%ADD11C,0.300000*%
%ADD12C,0.120000*%
%ADD13C,0.150000*%
%ADD14C,0.100000*%
G04 APERTURE END LIST*
D10*
X203735714Y-133570000D02*
X203164285Y-133570000D01*
X203850000Y-133912857D02*
X203450000Y-132712857D01*
X203050000Y-133912857D01*
X202707142Y-133855714D02*
X202592857Y-133912857D01*
X202364285Y-133912857D01*
X202250000Y-133855714D01*
X202192857Y-133741428D01*
X202192857Y-133684285D01*
X202250000Y-133570000D01*
X202364285Y-133512857D01*
X202535714Y-133512857D01*
X202650000Y-133455714D01*
X202707142Y-133341428D01*
X202707142Y-133284285D01*
X202650000Y-133170000D01*
X202535714Y-133112857D01*
X202364285Y-133112857D01*
X202250000Y-133170000D01*
X201678571Y-133912857D02*
X201678571Y-133112857D01*
X201678571Y-132712857D02*
X201735714Y-132770000D01*
X201678571Y-132827142D01*
X201621428Y-132770000D01*
X201678571Y-132712857D01*
X201678571Y-132827142D01*
X201107142Y-133112857D02*
X201107142Y-133912857D01*
X201107142Y-133227142D02*
X201050000Y-133170000D01*
X200935714Y-133112857D01*
X200764285Y-133112857D01*
X200650000Y-133170000D01*
X200592857Y-133284285D01*
X200592857Y-133912857D01*
X200021428Y-133912857D02*
X200021428Y-133112857D01*
X200021428Y-132712857D02*
X200078571Y-132770000D01*
X200021428Y-132827142D01*
X199964285Y-132770000D01*
X200021428Y-132712857D01*
X200021428Y-132827142D01*
X199450000Y-133112857D02*
X199450000Y-133912857D01*
X199450000Y-133227142D02*
X199392857Y-133170000D01*
X199278571Y-133112857D01*
X199107142Y-133112857D01*
X198992857Y-133170000D01*
X198935714Y-133284285D01*
X198935714Y-133912857D01*
X198192857Y-133912857D02*
X198307142Y-133855714D01*
X198364285Y-133798571D01*
X198421428Y-133684285D01*
X198421428Y-133341428D01*
X198364285Y-133227142D01*
X198307142Y-133170000D01*
X198192857Y-133112857D01*
X198021428Y-133112857D01*
X197907142Y-133170000D01*
X197850000Y-133227142D01*
X197792857Y-133341428D01*
X197792857Y-133684285D01*
X197850000Y-133798571D01*
X197907142Y-133855714D01*
X198021428Y-133912857D01*
X198192857Y-133912857D01*
X197335714Y-133855714D02*
X197221428Y-133912857D01*
X196992857Y-133912857D01*
X196878571Y-133855714D01*
X196821428Y-133741428D01*
X196821428Y-133684285D01*
X196878571Y-133570000D01*
X196992857Y-133512857D01*
X197164285Y-133512857D01*
X197278571Y-133455714D01*
X197335714Y-133341428D01*
X197335714Y-133284285D01*
X197278571Y-133170000D01*
X197164285Y-133112857D01*
X196992857Y-133112857D01*
X196878571Y-133170000D01*
X196078571Y-132712857D02*
X195964285Y-132712857D01*
X195850000Y-132770000D01*
X195792857Y-132827142D01*
X195735714Y-132941428D01*
X195678571Y-133170000D01*
X195678571Y-133455714D01*
X195735714Y-133684285D01*
X195792857Y-133798571D01*
X195850000Y-133855714D01*
X195964285Y-133912857D01*
X196078571Y-133912857D01*
X196192857Y-133855714D01*
X196250000Y-133798571D01*
X196307142Y-133684285D01*
X196364285Y-133455714D01*
X196364285Y-133170000D01*
X196307142Y-132941428D01*
X196250000Y-132827142D01*
X196192857Y-132770000D01*
X196078571Y-132712857D01*
X195221428Y-132827142D02*
X195164285Y-132770000D01*
X195050000Y-132712857D01*
X194764285Y-132712857D01*
X194650000Y-132770000D01*
X194592857Y-132827142D01*
X194535714Y-132941428D01*
X194535714Y-133055714D01*
X194592857Y-133227142D01*
X195278571Y-133912857D01*
X194535714Y-133912857D01*
X194307142Y-134027142D02*
X193392857Y-134027142D01*
X193221428Y-133112857D02*
X192935714Y-133912857D01*
X192650000Y-133112857D01*
X191564285Y-133912857D02*
X192250000Y-133912857D01*
X191907142Y-133912857D02*
X191907142Y-132712857D01*
X192021428Y-132884285D01*
X192135714Y-132998571D01*
X192250000Y-133055714D01*
D11*
X197964285Y-104216190D02*
X197964285Y-107263809D01*
X262774285Y-104366190D02*
X262774285Y-107413809D01*
X261250476Y-105890000D02*
X264298095Y-105890000D01*
D12*
%TO.C,BT2*%
X236280000Y-116120000D02*
X236280000Y-117830000D01*
X232662000Y-117830000D02*
X236280000Y-117830000D01*
X225830000Y-122330000D02*
X229817300Y-122330000D01*
X223630000Y-120130000D02*
X225830000Y-122330000D01*
X220310000Y-120130000D02*
X223630000Y-120130000D01*
X220310000Y-120130000D02*
X218110000Y-122330000D01*
X214122700Y-122330000D02*
X218110000Y-122330000D01*
X207660000Y-116120000D02*
X207660000Y-117830000D01*
X207660000Y-117830000D02*
X211278000Y-117830000D01*
X211278000Y-110610000D02*
X207660000Y-110610000D01*
X207660000Y-112320000D02*
X207660000Y-110610000D01*
X229817300Y-106110000D02*
X214122700Y-106110000D01*
X236280000Y-112320000D02*
X236280000Y-110610000D01*
X236280000Y-110610000D02*
X232662000Y-110610000D01*
X229815370Y-122331789D02*
G75*
G03*
X232662000Y-117830000I-7845370J8111789D01*
G01*
X214124630Y-106108211D02*
G75*
G03*
X211278000Y-110610000I7845370J-8111789D01*
G01*
X214124630Y-122331789D02*
G75*
G02*
X211278000Y-117830000I7845370J8111789D01*
G01*
X229815370Y-106108211D02*
G75*
G02*
X232662000Y-110610000I-7845370J-8111789D01*
G01*
%TO.C,C24*%
X234205010Y-119885543D02*
X233835543Y-120255010D01*
X235244457Y-120924990D02*
X234874990Y-121294457D01*
%TO.C,C26*%
X257151252Y-130555000D02*
X256628748Y-130555000D01*
X257151252Y-129085000D02*
X256628748Y-129085000D01*
%TO.C,R15*%
X256692936Y-131315000D02*
X257147064Y-131315000D01*
X256692936Y-132785000D02*
X257147064Y-132785000D01*
%TO.C,SW1*%
X268650000Y-130210000D02*
X262530000Y-130210000D01*
X262530000Y-130210000D02*
X262530000Y-133910000D01*
X262530000Y-133910000D02*
X268650000Y-133910000D01*
X268650000Y-133910000D02*
X268650000Y-130210000D01*
%TO.C,U1*%
X238800000Y-105530000D02*
X238800000Y-121730000D01*
X238800000Y-121730000D02*
X239200000Y-121730000D01*
X254600000Y-105530000D02*
X255000000Y-105530000D01*
X255000000Y-105530000D02*
X255000000Y-121730000D01*
X255000000Y-121730000D02*
X254600000Y-121730000D01*
X238800000Y-105530000D02*
X239150000Y-105530000D01*
X239150000Y-105530000D02*
X239150000Y-104630000D01*
%TO.C,AE1*%
X252550000Y-126925000D02*
X255250000Y-126925000D01*
X253140000Y-124205000D02*
X253140000Y-123575000D01*
X255300000Y-124205000D02*
X254660000Y-124205000D01*
X252500000Y-124205000D02*
X253140000Y-124205000D01*
%TO.C,BT1*%
X270390000Y-129210000D02*
X270390000Y-109110000D01*
X192390000Y-129210000D02*
X270390000Y-129210000D01*
X192390000Y-109110000D02*
X192390000Y-129210000D01*
X270390000Y-109110000D02*
X192390000Y-109110000D01*
%TO.C,BT2*%
D13*
X232425714Y-105748571D02*
X232282857Y-105796190D01*
X232235238Y-105843809D01*
X232187619Y-105939047D01*
X232187619Y-106081904D01*
X232235238Y-106177142D01*
X232282857Y-106224761D01*
X232378095Y-106272380D01*
X232759047Y-106272380D01*
X232759047Y-105272380D01*
X232425714Y-105272380D01*
X232330476Y-105320000D01*
X232282857Y-105367619D01*
X232235238Y-105462857D01*
X232235238Y-105558095D01*
X232282857Y-105653333D01*
X232330476Y-105700952D01*
X232425714Y-105748571D01*
X232759047Y-105748571D01*
X231901904Y-105272380D02*
X231330476Y-105272380D01*
X231616190Y-106272380D02*
X231616190Y-105272380D01*
X231044761Y-105367619D02*
X230997142Y-105320000D01*
X230901904Y-105272380D01*
X230663809Y-105272380D01*
X230568571Y-105320000D01*
X230520952Y-105367619D01*
X230473333Y-105462857D01*
X230473333Y-105558095D01*
X230520952Y-105700952D01*
X231092380Y-106272380D01*
X230473333Y-106272380D01*
%TO.C,C24*%
X233981385Y-119150532D02*
X234048729Y-119150532D01*
X234183416Y-119083188D01*
X234250759Y-119015845D01*
X234318103Y-118881158D01*
X234318103Y-118746471D01*
X234284431Y-118645456D01*
X234183416Y-118477097D01*
X234082401Y-118376082D01*
X233914042Y-118275066D01*
X233813027Y-118241395D01*
X233678340Y-118241395D01*
X233543653Y-118308738D01*
X233476309Y-118376082D01*
X233408966Y-118510769D01*
X233408966Y-118578112D01*
X233139591Y-118847486D02*
X233072248Y-118847486D01*
X232971233Y-118881158D01*
X232802874Y-119049517D01*
X232769202Y-119150532D01*
X232769202Y-119217875D01*
X232802874Y-119318891D01*
X232870217Y-119386234D01*
X233004904Y-119453578D01*
X233813027Y-119453578D01*
X233375294Y-119891311D01*
X232297798Y-120025998D02*
X232769202Y-120497402D01*
X232196782Y-119588265D02*
X232870217Y-119924982D01*
X232432485Y-120362715D01*
%TO.C,C26*%
D14*
X259861428Y-130248571D02*
X259885238Y-130272380D01*
X259956666Y-130296190D01*
X260004285Y-130296190D01*
X260075714Y-130272380D01*
X260123333Y-130224761D01*
X260147142Y-130177142D01*
X260170952Y-130081904D01*
X260170952Y-130010476D01*
X260147142Y-129915238D01*
X260123333Y-129867619D01*
X260075714Y-129820000D01*
X260004285Y-129796190D01*
X259956666Y-129796190D01*
X259885238Y-129820000D01*
X259861428Y-129843809D01*
X259670952Y-129843809D02*
X259647142Y-129820000D01*
X259599523Y-129796190D01*
X259480476Y-129796190D01*
X259432857Y-129820000D01*
X259409047Y-129843809D01*
X259385238Y-129891428D01*
X259385238Y-129939047D01*
X259409047Y-130010476D01*
X259694761Y-130296190D01*
X259385238Y-130296190D01*
X258956666Y-129796190D02*
X259051904Y-129796190D01*
X259099523Y-129820000D01*
X259123333Y-129843809D01*
X259170952Y-129915238D01*
X259194761Y-130010476D01*
X259194761Y-130200952D01*
X259170952Y-130248571D01*
X259147142Y-130272380D01*
X259099523Y-130296190D01*
X259004285Y-130296190D01*
X258956666Y-130272380D01*
X258932857Y-130248571D01*
X258909047Y-130200952D01*
X258909047Y-130081904D01*
X258932857Y-130034285D01*
X258956666Y-130010476D01*
X259004285Y-129986666D01*
X259099523Y-129986666D01*
X259147142Y-130010476D01*
X259170952Y-130034285D01*
X259194761Y-130081904D01*
%TO.C,R15*%
X257231428Y-133676190D02*
X257398095Y-133438095D01*
X257517142Y-133676190D02*
X257517142Y-133176190D01*
X257326666Y-133176190D01*
X257279047Y-133200000D01*
X257255238Y-133223809D01*
X257231428Y-133271428D01*
X257231428Y-133342857D01*
X257255238Y-133390476D01*
X257279047Y-133414285D01*
X257326666Y-133438095D01*
X257517142Y-133438095D01*
X256755238Y-133676190D02*
X257040952Y-133676190D01*
X256898095Y-133676190D02*
X256898095Y-133176190D01*
X256945714Y-133247619D01*
X256993333Y-133295238D01*
X257040952Y-133319047D01*
X256302857Y-133176190D02*
X256540952Y-133176190D01*
X256564761Y-133414285D01*
X256540952Y-133390476D01*
X256493333Y-133366666D01*
X256374285Y-133366666D01*
X256326666Y-133390476D01*
X256302857Y-133414285D01*
X256279047Y-133461904D01*
X256279047Y-133580952D01*
X256302857Y-133628571D01*
X256326666Y-133652380D01*
X256374285Y-133676190D01*
X256493333Y-133676190D01*
X256540952Y-133652380D01*
X256564761Y-133628571D01*
%TO.C,SW1*%
X260536666Y-134042380D02*
X260465238Y-134066190D01*
X260346190Y-134066190D01*
X260298571Y-134042380D01*
X260274761Y-134018571D01*
X260250952Y-133970952D01*
X260250952Y-133923333D01*
X260274761Y-133875714D01*
X260298571Y-133851904D01*
X260346190Y-133828095D01*
X260441428Y-133804285D01*
X260489047Y-133780476D01*
X260512857Y-133756666D01*
X260536666Y-133709047D01*
X260536666Y-133661428D01*
X260512857Y-133613809D01*
X260489047Y-133590000D01*
X260441428Y-133566190D01*
X260322380Y-133566190D01*
X260250952Y-133590000D01*
X260084285Y-133566190D02*
X259965238Y-134066190D01*
X259870000Y-133709047D01*
X259774761Y-134066190D01*
X259655714Y-133566190D01*
X259203333Y-134066190D02*
X259489047Y-134066190D01*
X259346190Y-134066190D02*
X259346190Y-133566190D01*
X259393809Y-133637619D01*
X259441428Y-133685238D01*
X259489047Y-133709047D01*
%TO.C,U1*%
D13*
X239761904Y-102932380D02*
X239761904Y-103741904D01*
X239714285Y-103837142D01*
X239666666Y-103884761D01*
X239571428Y-103932380D01*
X239380952Y-103932380D01*
X239285714Y-103884761D01*
X239238095Y-103837142D01*
X239190476Y-103741904D01*
X239190476Y-102932380D01*
X238190476Y-103932380D02*
X238761904Y-103932380D01*
X238476190Y-103932380D02*
X238476190Y-102932380D01*
X238571428Y-103075238D01*
X238666666Y-103170476D01*
X238761904Y-103218095D01*
%TO.C,AE1*%
X251086666Y-125546666D02*
X250610476Y-125546666D01*
X251181904Y-125832380D02*
X250848571Y-124832380D01*
X250515238Y-125832380D01*
X250181904Y-125308571D02*
X249848571Y-125308571D01*
X249705714Y-125832380D02*
X250181904Y-125832380D01*
X250181904Y-124832380D01*
X249705714Y-124832380D01*
X248753333Y-125832380D02*
X249324761Y-125832380D01*
X249039047Y-125832380D02*
X249039047Y-124832380D01*
X249134285Y-124975238D01*
X249229523Y-125070476D01*
X249324761Y-125118095D01*
%TO.C,BT1*%
X207025714Y-107938571D02*
X206882857Y-107986190D01*
X206835238Y-108033809D01*
X206787619Y-108129047D01*
X206787619Y-108271904D01*
X206835238Y-108367142D01*
X206882857Y-108414761D01*
X206978095Y-108462380D01*
X207359047Y-108462380D01*
X207359047Y-107462380D01*
X207025714Y-107462380D01*
X206930476Y-107510000D01*
X206882857Y-107557619D01*
X206835238Y-107652857D01*
X206835238Y-107748095D01*
X206882857Y-107843333D01*
X206930476Y-107890952D01*
X207025714Y-107938571D01*
X207359047Y-107938571D01*
X206501904Y-107462380D02*
X205930476Y-107462380D01*
X206216190Y-108462380D02*
X206216190Y-107462380D01*
X205073333Y-108462380D02*
X205644761Y-108462380D01*
X205359047Y-108462380D02*
X205359047Y-107462380D01*
X205454285Y-107605238D01*
X205549523Y-107700476D01*
X205644761Y-107748095D01*
%TD*%
M02*
